<svg width="28" height="30" viewBox="0 0 28 30" fill="none" xmlns="http://www.w3.org/2000/svg">
<path d="M27.9973 12.8587C27.9973 12.8424 28 12.826 28 12.8096C28 12.7824 28 12.7578 27.9973 12.7305C27.9753 9.59362 26.4765 6.39937 23.8852 3.9553C21.8648 2.05407 19.3996 0.785666 16.7643 0.261973C16.9482 0.553843 17.1184 0.875713 17.2804 1.22214C17.4232 1.5222 17.5549 1.84405 17.6785 2.18231C18.5734 4.59362 19.0647 7.87244 19.1827 11.1702C18.911 11.3338 18.6447 11.5139 18.3922 11.7157C18.1204 11.4975 17.8349 11.3038 17.5384 11.1375V11.1347C17.3792 6.96656 16.6408 3.64438 15.7239 1.74848C15.562 1.40752 15.3918 1.11292 15.2188 0.867433C14.8208 0.302785 14.4063 0 14 0C13.5937 0 13.1792 0.302781 12.7812 0.867433C12.6082 1.11293 12.438 1.40754 12.2761 1.74848C11.3592 3.64427 10.6208 6.96656 10.4616 11.1347V11.1375C10.1651 11.3039 9.87963 11.4975 9.60785 11.7157C9.3553 11.5139 9.08902 11.3338 8.81727 11.1702C8.93531 7.87234 9.42668 4.59355 10.3215 2.18231C10.4451 1.84407 10.5768 1.5222 10.7196 1.22214C10.8815 0.875716 11.0517 0.553829 11.2357 0.261973C8.6004 0.785701 6.13519 2.0541 4.11482 3.9581C1.52073 6.40216 0.0245296 9.5962 0.00274474 12.7333C-1.59365e-07 12.7606 0 12.7852 0 12.8124C0 12.8315 0.00274474 12.8479 0.00274474 12.867V12.8888V12.9134C0.00274474 12.9161 0.00549015 12.9161 0.00549015 12.9188C0.00549015 12.9297 0.00548997 12.9406 0.00823522 12.9488C0.0109801 12.957 0.0109801 12.9652 0.013725 12.9706C0.013725 12.9843 0.0192157 12.9952 0.0219606 13.0088C0.0247055 13.0225 0.0274507 13.0361 0.0329409 13.0498V13.0552C0.0329409 13.0579 0.0356856 13.0607 0.0356856 13.0634C0.0384309 13.0716 0.0411761 13.0798 0.0466659 13.0879C0.0466659 13.0934 0.0494111 13.0989 0.0521564 13.1043V13.1098C0.0549013 13.118 0.0603916 13.1289 0.0658818 13.137C0.0658818 13.1398 0.0658816 13.1425 0.0686265 13.1452C0.074117 13.1589 0.0796068 13.1725 0.0850973 13.1861V13.1889C0.0850973 13.1916 0.0878423 13.1943 0.0878423 13.1943C0.0960777 13.208 0.104313 13.2243 0.115293 13.238C0.126273 13.2571 0.139999 13.2762 0.153726 13.2953C0.161961 13.3062 0.167451 13.3171 0.172942 13.328L13.3493 29.6945C13.3548 29.6999 13.3603 29.7054 13.3658 29.7109C13.396 29.7463 13.4289 29.7791 13.4673 29.8118C13.4728 29.8172 13.4783 29.8227 13.4865 29.8282C13.5305 29.8609 13.5744 29.8909 13.6238 29.9127C13.6375 29.9182 13.6513 29.9236 13.6622 29.9291C13.7007 29.9454 13.7391 29.9591 13.7803 29.97C13.794 29.9727 13.8105 29.9782 13.8242 29.9809C13.8791 29.9918 13.934 30 13.9889 30C14.0438 30 14.1014 29.9918 14.1536 29.9809C14.1701 29.9782 14.1838 29.9727 14.1975 29.97C14.2387 29.9591 14.2771 29.9454 14.3156 29.9291C14.3293 29.9236 14.343 29.9182 14.354 29.9127C14.4034 29.8882 14.4501 29.8609 14.4912 29.8282C14.4967 29.8227 14.505 29.8172 14.5105 29.8118C14.5461 29.7818 14.5791 29.749 14.6093 29.7136C14.6148 29.7081 14.6203 29.7027 14.6258 29.6972L27.8021 13.3307C27.8131 13.3171 27.8186 13.3034 27.8296 13.2898C27.8405 13.2734 27.8543 13.2598 27.8625 13.2434C27.8735 13.2298 27.8817 13.2134 27.8899 13.1998C27.8899 13.1971 27.8899 13.1971 27.8927 13.1943C27.8954 13.1889 27.8954 13.1861 27.8982 13.1807C27.9037 13.1698 27.9092 13.1589 27.9119 13.148C27.9146 13.1452 27.9146 13.1425 27.9146 13.1398C27.9201 13.1316 27.9256 13.1207 27.9284 13.1125V13.107C27.9311 13.1016 27.9339 13.0961 27.9339 13.0907C27.9394 13.0825 27.9421 13.0743 27.9448 13.0661C27.9448 13.0634 27.9476 13.0607 27.9476 13.0579V13.0525C27.9531 13.0361 27.9558 13.0198 27.9586 13.0034C27.9613 12.9925 27.9641 12.9816 27.9668 12.9706C27.9696 12.9652 27.9696 12.957 27.9723 12.9488C27.975 12.9406 27.975 12.9297 27.975 12.9188C27.975 12.9161 27.9778 12.9161 27.9778 12.9134V12.8915C27.997 12.8779 27.9973 12.8697 27.9973 12.8587ZM17.4671 13.0824L14 26.001L10.533 13.0824C12.5287 11.4076 15.4716 11.4076 17.4671 13.0824ZM8.87222 13.2461L12.1938 25.6246L1.96012 12.9105C4.01345 11.3612 6.93969 11.4703 8.87222 13.2461ZM19.128 13.2434C21.0578 11.4676 23.9895 11.3585 26.0429 12.9106L15.8065 25.6246L19.128 13.2434Z" fill="currentColor"/>
</svg>
