<svg width="57" height="57" viewBox="0 0 57 57" fill="none" xmlns="http://www.w3.org/2000/svg">
<rect x="0.660156" y="1.01953" width="55" height="55" rx="11.5" fill="#F7F7F7"/>
<rect x="0.660156" y="1.01953" width="55" height="55" rx="11.5" stroke="#EBEBEB"/>
<path d="M27.6602 25.8008C33.6663 25.8008 38.5352 23.7721 38.5352 21.2695C38.5352 18.767 33.6663 16.7383 27.6602 16.7383C21.6541 16.7383 16.7852 18.767 16.7852 21.2695C16.7852 23.7721 21.6541 25.8008 27.6602 25.8008Z" stroke="black" stroke-width="1.8125" stroke-miterlimit="10" stroke-linecap="round"/>
<path d="M38.5352 26.1406C38.5352 28.643 33.6641 30.6719 27.6602 30.6719C21.6562 30.6719 16.7852 28.643 16.7852 26.1406M38.5352 31.0117C38.5352 33.5141 33.6641 35.543 27.6602 35.543C21.6562 35.543 16.7852 33.5141 16.7852 31.0117" stroke="black" stroke-width="1.8125" stroke-miterlimit="10" stroke-linecap="round"/>
<path d="M16.7852 21.2266V35.8127C16.7852 38.2913 21.6562 40.3009 27.6602 40.3009C33.6641 40.3009 38.5352 38.2913 38.5352 35.8127V21.2266" stroke="black" stroke-width="1.8125" stroke-miterlimit="10" stroke-linecap="round"/>
</svg>
