<svg width="9" height="16" viewBox="0 0 9 16" fill="none" xmlns="http://www.w3.org/2000/svg">
<path d="M4.12499 0.473107C1.95574 1.72577 0 4.59424 0 7.99689C0 9.68717 0.458247 11.0707 1.25978 12.0419C2.06132 13.0139 3.21091 13.5499 4.43897 13.5499C5.66703 13.5499 6.82133 13.0139 7.62303 12.0419C8.42473 11.0699 8.88281 9.68715 8.88281 7.99689C8.88281 4.57597 6.80875 1.65678 4.75782 0.473107H4.75703C4.562 0.360527 4.32083 0.360527 4.12499 0.473107ZM4.43895 1.90573C5.92706 2.95622 7.61347 5.30777 7.61347 7.99701C7.61347 9.45896 7.22023 10.5387 6.64465 11.2373C6.06908 11.9358 5.31272 12.2814 4.43988 12.2814C3.5662 12.2814 2.8154 11.9358 2.23897 11.2373C1.66339 10.5388 1.27015 9.459 1.27015 7.99701C1.27015 5.28869 2.8439 3.01492 4.4398 1.90573H4.43895Z" fill="url(#paint0_linear_903_15743)"/>
<path d="M4.43852 5.45902C4.27044 5.45982 4.10871 5.52721 3.99058 5.64692C3.87166 5.76585 3.80585 5.92758 3.80665 6.09565V14.9728C3.80585 15.1409 3.87166 15.3026 3.99058 15.4223C4.10871 15.542 4.27045 15.6094 4.43852 15.6094C4.60739 15.6102 4.76991 15.5436 4.88964 15.4239C5.00856 15.3042 5.07595 15.1416 5.07516 14.9728V6.09563C5.07595 5.92676 5.00856 5.76424 4.88964 5.64451C4.76993 5.52559 4.6074 5.45823 4.43852 5.45902Z" fill="url(#paint1_linear_903_15743)"/>
<defs>
<linearGradient id="paint0_linear_903_15743" x1="0" y1="6.96926" x2="8.88281" y2="6.96926" gradientUnits="userSpaceOnUse">
<stop stop-color="#06C983"/>
<stop offset="1" stop-color="#A2D2FF"/>
</linearGradient>
<linearGradient id="paint1_linear_903_15743" x1="3.80664" y1="10.5342" x2="5.07517" y2="10.5342" gradientUnits="userSpaceOnUse">
<stop stop-color="#06C983"/>
<stop offset="1" stop-color="#A2D2FF"/>
</linearGradient>
</defs>
</svg>
