<svg width="42" height="42" viewBox="0 0 42 42" fill="none" xmlns="http://www.w3.org/2000/svg">
<circle cx="21.2314" cy="21" r="20.5" fill="#111111"/>
<path d="M25.7158 12.6719H25.259C25.1946 12.6718 25.1318 12.6524 25.0787 12.6161C25.0255 12.5798 24.9846 12.5284 24.9611 12.4685C24.838 12.1513 24.622 11.8787 24.3414 11.6864C24.0607 11.4941 23.7286 11.391 23.3883 11.3906H19.0745C18.7343 11.391 18.4022 11.4941 18.1215 11.6864C17.8409 11.8787 17.6249 12.1513 17.5018 12.4685C17.4783 12.5284 17.4373 12.5798 17.3842 12.6161C17.3311 12.6524 17.2683 12.6718 17.2039 12.6719H16.7471C16.0675 12.6719 15.4157 12.9419 14.9351 13.4224C14.4545 13.903 14.1846 14.5548 14.1846 15.2344V28.0469C14.1846 28.7265 14.4545 29.3783 14.9351 29.8588C15.4157 30.3394 16.0675 30.6094 16.7471 30.6094H25.7158C26.3954 30.6094 27.0472 30.3394 27.5278 29.8588C28.0083 29.3783 28.2783 28.7265 28.2783 28.0469V15.2344C28.2783 14.5548 28.0083 13.903 27.5278 13.4224C27.0472 12.9419 26.3954 12.6719 25.7158 12.6719ZM23.7887 15.2344H18.6742C18.5042 15.2344 18.3413 15.1669 18.2212 15.0467C18.101 14.9266 18.0335 14.7637 18.0335 14.5938C18.0335 14.4238 18.101 14.2609 18.2212 14.1408C18.3413 14.0206 18.5042 13.9531 18.6742 13.9531H23.7887C23.9586 13.9531 24.1216 14.0206 24.2417 14.1408C24.3619 14.2609 24.4294 14.4238 24.4294 14.5938C24.4294 14.7637 24.3619 14.9266 24.2417 15.0467C24.1216 15.1669 23.9586 15.2344 23.7887 15.2344Z" fill="white"/>
</svg>
