<svg width="80" height="90" viewBox="0 0 80 90" fill="none" xmlns="http://www.w3.org/2000/svg">
<g filter="url(#filter0_d_8847_21797)">
<rect width="40" height="40" rx="20" transform="matrix(-1 3.43863e-07 2.22261e-08 1 60 30)" fill="#160C25"/>
<path d="M51.7984 44.2437L38.1809 38.0798L38.0042 38L37.8415 38.104L28.1569 44.2741L28 44.3741V51.1309L28.0877 51.2264L37.723 61.7606L37.942 62L38.2012 61.8011L51.8681 51.304L52 51.2028V44.3348L51.7989 44.2437H51.7984ZM36.4782 48.2779V55.9563L31.0316 49.9952V46.9057L36.4782 48.2779ZM48.9701 46.2263V48.3706L33.4217 44.4545L38.25 41.3818L48.9701 46.2263ZM47.3367 51.0146L39.5151 57.0291V49.0461L47.3367 51.0146Z" fill="#C2FF28"/>
</g>
<defs>
<filter id="filter0_d_8847_21797" x="-14" y="0" width="108" height="108" filterUnits="userSpaceOnUse" color-interpolation-filters="sRGB">
<feFlood flood-opacity="0" result="BackgroundImageFix"/>
<feColorMatrix in="SourceAlpha" type="matrix" values="0 0 0 0 0 0 0 0 0 0 0 0 0 0 0 0 0 0 127 0" result="hardAlpha"/>
<feOffset dy="4"/>
<feGaussianBlur stdDeviation="17"/>
<feComposite in2="hardAlpha" operator="out"/>
<feColorMatrix type="matrix" values="0 0 0 0 0 0 0 0 0 0 0 0 0 0 0 0 0 0 0.25 0"/>
<feBlend mode="normal" in2="BackgroundImageFix" result="effect1_dropShadow_8847_21797"/>
<feBlend mode="normal" in="SourceGraphic" in2="effect1_dropShadow_8847_21797" result="shape"/>
</filter>
</defs>
</svg>
